<svg width="10" height="16" viewBox="0 0 10 16" fill="none" xmlns="http://www.w3.org/2000/svg">
<path d="M9.62891 8C9.62891 7.66601 9.49707 7.38476 9.24219 7.12988L2.82617 0.863281C2.61523 0.661132 2.36914 0.555663 2.07031 0.555663C1.45508 0.555663 0.971678 1.03906 0.971678 1.63672C0.971678 1.92676 1.09473 2.20801 1.31445 2.42773L7.03613 7.99121L1.31445 13.5723C1.10351 13.7832 0.971679 14.0557 0.971679 14.3633C0.971679 14.9609 1.45508 15.4443 2.07031 15.4443C2.36035 15.4443 2.61523 15.3301 2.82617 15.1279L9.24219 8.86133C9.50586 8.59766 9.62891 8.32519 9.62891 8Z" fill="black"/>
</svg>
