<svg width="14" height="13" viewBox="0 0 14 13" fill="none" xmlns="http://www.w3.org/2000/svg">
<path d="M1.25 11.1094C0.914062 11.4531 0.898438 12.0625 1.25781 12.4141C1.61719 12.7656 2.21875 12.7578 2.5625 12.4219L7 7.98438L11.4297 12.4219C11.7812 12.7656 12.3828 12.7734 12.7344 12.4141C13.0859 12.0547 13.0938 11.4609 12.7422 11.1094L8.30469 6.67188L12.7422 2.24219C13.0938 1.89062 13.0938 1.28906 12.7344 0.9375C12.375 0.585938 11.7812 0.585938 11.4297 0.929688L7 5.36719L2.5625 0.929688C2.21875 0.59375 1.60938 0.578125 1.25781 0.9375C0.90625 1.29688 0.914062 1.89844 1.25 2.23438L5.6875 6.67188L1.25 11.1094Z" fill="black"/>
</svg>
