<svg width="29" height="28" viewBox="0 0 29 28" fill="none" xmlns="http://www.w3.org/2000/svg">
<rect x="0.5" width="28" height="28" rx="14" fill="url(#paint0_linear_387_5900)"/>
<path fill-rule="evenodd" clip-rule="evenodd" d="M6.5 10.7344V19.4524C6.5 20.5569 7.39543 21.4524 8.5 21.4524H20.5C21.6046 21.4524 22.5 20.5569 22.5 19.4524V10.7344C22.5 10.1221 22.2195 9.54357 21.7389 9.1643L15.7389 4.42992C15.0124 3.85669 13.9876 3.85669 13.2611 4.42992L7.26111 9.1643C6.78045 9.54357 6.5 10.1221 6.5 10.7344ZM11.7327 18.4429C11.6156 18.4681 11.5106 18.4429 11.4175 18.3675C11.3244 18.2953 11.2674 18.1979 11.2464 18.0754C11.2284 17.9528 11.2479 17.8067 11.3049 17.6371L12.2461 14.7059L9.84135 12.8963C9.70025 12.7926 9.60267 12.6858 9.54864 12.5758C9.4946 12.4659 9.48559 12.3528 9.52162 12.2365C9.55764 12.1234 9.62819 12.0386 9.73327 11.982C9.83835 11.9255 9.97795 11.8988 10.1521 11.9019L13.1017 11.9208L13.9979 8.97545C14.0519 8.80266 14.1195 8.67228 14.2005 8.58431C14.2846 8.49634 14.3837 8.45236 14.4977 8.45236C14.6148 8.45236 14.7139 8.49634 14.795 8.58431C14.879 8.67228 14.9481 8.80266 15.0021 8.97545L15.8983 11.9208L18.8479 11.9019C19.0221 11.8988 19.1617 11.9255 19.2667 11.982C19.3718 12.0386 19.4424 12.1234 19.4784 12.2365C19.5144 12.3528 19.5054 12.4659 19.4514 12.5758C19.3973 12.6858 19.2998 12.7926 19.1587 12.8963L16.7539 14.7059L17.6951 17.6371C17.7521 17.8067 17.7701 17.9528 17.7491 18.0754C17.7311 18.1979 17.6756 18.2953 17.5825 18.3675C17.4894 18.4429 17.3844 18.4681 17.2673 18.4429C17.1502 18.4209 17.0226 18.3581 16.8845 18.2544L14.4977 16.4213L12.1155 18.2544C11.9774 18.3581 11.8498 18.4209 11.7327 18.4429Z" fill="white"/>
<defs>
<linearGradient id="paint0_linear_387_5900" x1="14.5" y1="0" x2="14.5" y2="28" gradientUnits="userSpaceOnUse">
<stop stop-color="#9A3CC2"/>
<stop offset="1" stop-color="#6B2A87"/>
</linearGradient>
</defs>
</svg>
